<?xml version="1.0" encoding="UTF-8" standalone="no"?>
<!DOCTYPE svg PUBLIC "-//W3C//DTD SVG 1.1//EN" "http://www.w3.org/Graphics/SVG/1.1/DTD/svg11.dtd">
<svg width="100%" height="100%" viewBox="0 0 3508 2481" version="1.1" xmlns="http://www.w3.org/2000/svg" xmlns:xlink="http://www.w3.org/1999/xlink" xml:space="preserve" xmlns:serif="http://www.serif.com/" style="fill-rule:evenodd;clip-rule:evenodd;stroke-linejoin:round;stroke-miterlimit:1.41421;">
    <g transform="matrix(1,0,0,1,-294.301,216.912)">
        <path d="M2441.19,1165.04L2441.19,1090.82C2435.33,1059.25 2419.7,1030.6 2394.31,1004.88C2360.13,971.029 2319.12,954.102 2271.26,954.102C2223.09,954.102 2181.99,971.029 2147.97,1004.88C2113.96,1038.74 2096.95,1079.75 2096.95,1127.93C2096.95,1175.78 2113.96,1216.72 2147.97,1250.73C2181.99,1284.75 2223.09,1301.76 2271.26,1301.76C2319.12,1301.76 2360.13,1284.83 2394.31,1250.98C2419.7,1225.26 2435.33,1196.62 2441.19,1165.04ZM2441.19,925.293L2441.19,890.137L2542.75,890.137L2542.75,1393.07L2441.19,1393.07L2441.19,1330.08C2392.36,1380.53 2335.72,1405.76 2271.26,1405.76C2194.44,1405.76 2128.93,1378.66 2074.73,1324.46C2020.53,1270.26 1993.43,1204.75 1993.43,1127.93C1993.43,1051.11 2020.53,985.596 2074.73,931.397C2128.93,877.198 2194.44,850.098 2271.26,850.098C2335.72,850.098 2392.36,875.163 2441.19,925.293Z" style="fill:rgb(125,124,124);fill-rule:nonzero;"/>
        <path d="M2880.64,1392.58L2640.89,890.137L2755.15,890.137L2906.03,1216.31L3057.4,890.137L3171.66,890.137L2931.42,1392.58L2880.64,1392.58Z" style="fill:rgb(93,202,232);fill-rule:nonzero;"/>
        <path d="M3416.28,1278.81C3433.21,1293.78 3463.97,1301.27 3508.57,1301.27C3556.75,1301.27 3597.93,1284.34 3632.11,1250.49C3636.34,1245.93 3644.96,1235.84 3657.98,1220.21L3759.06,1256.35C3734.32,1290.53 3716.41,1313.15 3705.35,1324.22C3650.99,1378.58 3585.39,1405.76 3508.57,1405.76C3432.07,1405.76 3366.64,1378.58 3312.28,1324.22C3257.92,1269.86 3230.74,1204.27 3230.74,1127.44C3230.74,1050.62 3257.92,985.026 3312.28,930.664C3366.64,876.302 3432.07,849.121 3508.57,849.121C3574.33,849.121 3631.94,868.978 3681.42,908.692C3689.56,915.528 3697.53,922.852 3705.35,930.664C3708.6,933.92 3717.88,944.173 3733.18,961.426L3682.4,1012.7L3416.28,1278.81ZM3585.23,966.309C3573.84,957.52 3548.28,953.125 3508.57,953.125C3460.72,953.125 3419.78,970.134 3385.77,1004.15C3351.75,1038.17 3334.74,1079.27 3334.74,1127.44C3334.74,1166.83 3339.14,1192.38 3347.93,1204.1L3585.23,966.309Z" style="fill:rgb(125,124,124);fill-rule:nonzero;"/>
    </g>
    <g transform="matrix(2.05885,-1.39624,0.95657,1.32426,-1363.76,78.3217)">
        <path d="M391.507,846.527C391.507,803.141 368.386,767.918 339.908,767.918C311.43,767.918 288.309,803.141 288.309,846.527L288.309,1438.26C288.309,1481.65 311.43,1516.87 339.908,1516.87C368.386,1516.87 391.507,1481.65 391.507,1438.26L391.507,846.527Z" style="fill:rgb(93,202,232);"/>
    </g>
    <g transform="matrix(1.75782,1.76024,-1.12121,1.1881,1735.46,-839.038)">
        <path d="M391.507,846.527C391.507,803.141 368.386,767.918 339.908,767.918C311.43,767.918 288.309,803.141 288.309,846.527L288.309,1438.26C288.309,1481.65 311.43,1516.87 339.908,1516.87C368.386,1516.87 391.507,1481.65 391.507,1438.26L391.507,846.527Z" style="fill:rgb(93,202,232);fill-opacity:0.329412;"/>
    </g>
    <g transform="matrix(2.05885,-1.39624,0.95657,1.32426,-785.522,78.3217)">
        <path d="M391.507,846.527C391.507,803.141 368.386,767.918 339.908,767.918C311.43,767.918 288.309,803.141 288.309,846.527L288.309,1438.26C288.309,1481.65 311.43,1516.87 339.908,1516.87C368.386,1516.87 391.507,1481.65 391.507,1438.26L391.507,846.527Z" style="fill:rgb(0,228,255);"/>
    </g>
    <g transform="matrix(2.05885,-1.39624,0.408801,0.565938,290.136,691.503)">
        <path d="M391.507,951.858C391.507,850.339 368.386,767.918 339.908,767.918C311.43,767.918 288.309,850.339 288.309,951.858L288.309,1332.93C288.309,1434.45 311.43,1516.87 339.908,1516.87C368.386,1516.87 391.507,1434.45 391.507,1332.93L391.507,951.858Z" style="fill:rgb(125,124,124);"/>
    </g>
    <g transform="matrix(4.08211,0,0,3.95532,1698.21,1852.68)">
        <path d="M15.338,-16.539L1.278,-40.901L3.911,-40.901L16.488,-19.096L29.091,-40.901L31.724,-40.901L17.638,-16.539L17.638,0L15.338,0L15.338,-16.539Z" style="fill:rgb(125,124,124);fill-rule:nonzero;"/>
        <path d="M45.783,-27.378C49.669,-27.378 52.979,-26.006 55.715,-23.262C58.45,-20.519 59.817,-17.204 59.817,-13.318C59.817,-9.45 58.45,-6.144 55.715,-3.4C52.979,-0.656 49.669,0.716 45.783,0.716C41.915,0.716 38.609,-0.656 35.865,-3.4C33.121,-6.144 31.749,-9.45 31.749,-13.318C31.749,-17.204 33.121,-20.519 35.865,-23.262C38.609,-26.006 41.915,-27.378 45.783,-27.378ZM45.783,-24.924C42.579,-24.924 39.844,-23.791 37.578,-21.524C35.311,-19.257 34.178,-16.522 34.178,-13.318C34.178,-10.114 35.311,-7.383 37.578,-5.125C39.844,-2.867 42.579,-1.738 45.783,-1.738C48.987,-1.738 51.722,-2.867 53.989,-5.125C56.256,-7.383 57.389,-10.114 57.389,-13.318C57.389,-16.522 56.256,-19.257 53.989,-21.524C51.722,-23.791 48.987,-24.924 45.783,-24.924Z" style="fill:rgb(125,124,124);fill-rule:nonzero;"/>
        <path d="M76.306,0.358C73.17,0.358 70.673,-0.571 68.816,-2.428C66.958,-4.286 66.004,-6.629 65.953,-9.458L65.953,-25.103L68.253,-25.103L68.253,-9.663C68.253,-7.533 69.029,-5.718 70.579,-4.218C72.113,-2.701 74.013,-1.943 76.28,-1.943C78.393,-1.943 80.221,-2.697 81.763,-4.205C83.306,-5.713 84.077,-7.533 84.077,-9.663L84.077,-25.103L86.377,-25.103L86.377,-9.458C86.326,-6.629 85.372,-4.286 83.514,-2.428C81.657,-0.571 79.254,0.358 76.306,0.358Z" style="fill:rgb(125,124,124);fill-rule:nonzero;"/>
        <path d="M94.046,-25.103L96.347,-25.103L96.347,-20.527C96.824,-21.209 97.378,-21.865 98.008,-22.495C100.036,-24.523 102.116,-25.589 104.246,-25.691L104.246,-23.186C102.797,-23.117 101.298,-22.308 99.747,-20.757C97.565,-18.593 96.432,-15.994 96.347,-12.96L96.347,0L94.046,0L94.046,-25.103Z" style="fill:rgb(125,124,124);fill-rule:nonzero;"/>
        <path d="M160.101,-6.519L161.839,-4.959C157.851,-1.329 153.156,0.486 147.754,0.486C141.96,0.486 137.022,-1.555 132.94,-5.637C128.859,-9.718 126.818,-14.656 126.818,-20.45C126.818,-26.228 128.859,-31.161 132.94,-35.251C137.022,-39.341 141.96,-41.386 147.754,-41.386C153.156,-41.386 157.851,-39.572 161.839,-35.942L160.101,-34.357C156.59,-37.475 152.475,-39.035 147.754,-39.035C142.624,-39.035 138.245,-37.22 134.615,-33.59C130.985,-29.96 129.17,-25.58 129.17,-20.45C129.17,-15.304 130.985,-10.915 134.615,-7.285C138.245,-3.656 142.624,-1.841 147.754,-1.841C152.475,-1.841 156.59,-3.4 160.101,-6.519Z" style="fill:rgb(125,124,124);fill-rule:nonzero;"/>
        <path d="M170.863,-40.901L186.226,-14.315L201.564,-40.901L204.197,-40.901L204.095,-40.722L204.095,0L201.794,0L201.794,-36.734L186.226,-9.791L170.633,-36.734L170.633,0L168.332,0L168.332,-40.722L168.23,-40.901L170.863,-40.901Z" style="fill:rgb(125,124,124);fill-rule:nonzero;"/>
        <path d="M222.04,-22.649C219.126,-23.62 216.825,-24.949 215.138,-26.637C213.451,-28.324 212.607,-30.369 212.607,-32.772C212.607,-35.124 213.451,-37.147 215.138,-38.843C216.825,-40.539 218.87,-41.386 221.273,-41.386C223.659,-41.386 225.704,-40.543 227.408,-38.856C228.346,-37.953 228.993,-36.939 229.351,-35.814L227.281,-34.996C226.974,-35.831 226.471,-36.598 225.772,-37.296C224.528,-38.523 223.029,-39.137 221.273,-39.137C219.518,-39.137 218.018,-38.519 216.774,-37.284C215.53,-36.048 214.908,-34.544 214.908,-32.772C214.908,-31.016 215.53,-29.517 216.774,-28.273C217.933,-27.131 219.535,-26.083 221.58,-25.128C224.852,-24.072 227.604,-22.427 229.837,-20.195C232.206,-17.843 233.39,-14.997 233.39,-11.657C233.39,-8.299 232.206,-5.436 229.837,-3.068C227.468,-0.699 224.613,0.486 221.273,0.486C217.933,0.486 215.078,-0.707 212.71,-3.093C210.818,-4.985 209.685,-7.183 209.31,-9.688L211.483,-10.481C211.721,-8.265 212.667,-6.331 214.32,-4.678C216.246,-2.752 218.564,-1.789 221.273,-1.789C224,-1.789 226.326,-2.752 228.252,-4.678C230.178,-6.604 231.141,-8.93 231.141,-11.657C231.141,-14.366 230.178,-16.684 228.252,-18.61C226.565,-20.297 224.494,-21.643 222.04,-22.649Z" style="fill:rgb(125,124,124);fill-rule:nonzero;"/>
        <path d="M263.503,-12.909C261.543,-13.966 260.189,-14.869 259.439,-15.619C258.263,-16.795 257.675,-18.209 257.675,-19.862C257.675,-21.533 258.263,-22.96 259.439,-24.144C260.615,-25.329 262.029,-25.921 263.682,-25.921C265.352,-25.921 266.733,-25.376 267.823,-24.285C268.88,-23.211 269.408,-21.993 269.408,-20.629L269.408,-20.502L267.414,-19.709C267.244,-21.004 266.839,-21.976 266.2,-22.623C265.561,-23.271 264.722,-23.595 263.682,-23.595C262.66,-23.595 261.782,-23.232 261.049,-22.508C260.316,-21.784 259.95,-20.902 259.95,-19.862C259.95,-18.84 260.316,-17.962 261.049,-17.229C261.475,-16.803 262.379,-16.156 263.759,-15.287C265.94,-14.094 267.491,-13.037 268.411,-12.117C269.86,-10.651 270.584,-8.904 270.584,-6.876C270.584,-4.797 269.86,-3.029 268.411,-1.572C266.963,-0.115 265.207,0.614 263.145,0.614C261.083,0.614 259.328,-0.115 257.879,-1.572C256.431,-3.029 255.707,-4.627 255.707,-6.365L257.982,-6.953C257.982,-5.453 258.489,-4.201 259.503,-3.195C260.517,-2.19 261.731,-1.687 263.145,-1.687C264.56,-1.687 265.774,-2.19 266.788,-3.195C267.802,-4.201 268.309,-5.428 268.309,-6.876C268.309,-8.291 267.806,-9.501 266.801,-10.506C266.256,-11.052 265.156,-11.853 263.503,-12.909Z" style="fill:rgb(125,124,124);fill-rule:nonzero;"/>
        <path d="M289.603,-27.378C293.489,-27.378 296.799,-26.006 299.534,-23.262C302.27,-20.519 303.637,-17.204 303.637,-13.318C303.637,-9.45 302.27,-6.144 299.534,-3.4C296.799,-0.656 293.489,0.716 289.603,0.716C285.735,0.716 282.428,-0.656 279.685,-3.4C276.941,-6.144 275.569,-9.45 275.569,-13.318C275.569,-17.204 276.941,-20.519 279.685,-23.262C282.428,-26.006 285.735,-27.378 289.603,-27.378ZM289.603,-24.924C286.399,-24.924 283.664,-23.791 281.397,-21.524C279.131,-19.257 277.997,-16.522 277.997,-13.318C277.997,-10.114 279.131,-7.383 281.397,-5.125C283.664,-2.867 286.399,-1.738 289.603,-1.738C292.807,-1.738 295.542,-2.867 297.809,-5.125C300.075,-7.383 301.209,-10.114 301.209,-13.318C301.209,-16.522 300.075,-19.257 297.809,-21.524C295.542,-23.791 292.807,-24.924 289.603,-24.924Z" style="fill:rgb(125,124,124);fill-rule:nonzero;"/>
        <rect x="309.772" y="-40.901" width="2.301" height="40.901" style="fill:rgb(125,124,124);fill-rule:nonzero;"/>
        <path d="M330.095,0.358C326.959,0.358 324.462,-0.571 322.605,-2.428C320.747,-4.286 319.793,-6.629 319.742,-9.458L319.742,-25.103L322.043,-25.103L322.043,-9.663C322.043,-7.533 322.818,-5.718 324.369,-4.218C325.903,-2.701 327.803,-1.943 330.069,-1.943C332.183,-1.943 334.01,-2.697 335.553,-4.205C337.095,-5.713 337.866,-7.533 337.866,-9.663L337.866,-25.103L340.167,-25.103L340.167,-9.458C340.116,-6.629 339.161,-4.286 337.304,-2.428C335.446,-0.571 333.043,0.358 330.095,0.358Z" style="fill:rgb(125,124,124);fill-rule:nonzero;"/>
        <path d="M351.414,-25.103L351.414,-35.788L353.715,-35.788L353.715,-25.103L358.828,-25.103L358.828,-22.802L353.715,-22.802L353.715,0L351.414,0L351.414,-22.802L346.302,-22.802L346.302,-25.103L351.414,-25.103Z" style="fill:rgb(125,124,124);fill-rule:nonzero;"/>
        <path d="M367.775,-25.103L367.775,0L365.474,0L365.474,-25.103L367.775,-25.103ZM366.624,-33.999C367.255,-33.999 367.796,-33.777 368.248,-33.334C368.699,-32.891 368.925,-32.354 368.925,-31.724C368.925,-31.076 368.699,-30.531 368.248,-30.088C367.796,-29.645 367.255,-29.423 366.624,-29.423C365.994,-29.423 365.453,-29.645 365.001,-30.088C364.55,-30.531 364.324,-31.076 364.324,-31.724C364.324,-32.354 364.55,-32.891 365.001,-33.334C365.453,-33.777 365.994,-33.999 366.624,-33.999Z" style="fill:rgb(125,124,124);fill-rule:nonzero;"/>
        <path d="M388.455,-27.378C392.341,-27.378 395.651,-26.006 398.386,-23.262C401.122,-20.519 402.489,-17.204 402.489,-13.318C402.489,-9.45 401.122,-6.144 398.386,-3.4C395.651,-0.656 392.341,0.716 388.455,0.716C384.587,0.716 381.28,-0.656 378.537,-3.4C375.793,-6.144 374.421,-9.45 374.421,-13.318C374.421,-17.204 375.793,-20.519 378.537,-23.262C381.28,-26.006 384.587,-27.378 388.455,-27.378ZM388.455,-24.924C385.251,-24.924 382.516,-23.791 380.249,-21.524C377.983,-19.257 376.85,-16.522 376.85,-13.318C376.85,-10.114 377.983,-7.383 380.249,-5.125C382.516,-2.867 385.251,-1.738 388.455,-1.738C391.659,-1.738 394.394,-2.867 396.661,-5.125C398.927,-7.383 400.061,-10.114 400.061,-13.318C400.061,-16.522 398.927,-19.257 396.661,-21.524C394.394,-23.791 391.659,-24.924 388.455,-24.924Z" style="fill:rgb(125,124,124);fill-rule:nonzero;"/>
        <path d="M410.925,-19.505L410.925,0L408.624,0L408.624,-25.103L410.925,-25.103L410.925,-23.492C413.021,-25.572 415.458,-26.611 418.236,-26.611C421.201,-26.611 423.613,-25.682 425.47,-23.825C427.328,-21.967 428.282,-19.624 428.333,-16.795L428.333,0L426.033,0L426.033,-16.59C426.033,-18.721 425.262,-20.54 423.719,-22.048C422.177,-23.556 420.349,-24.31 418.236,-24.31C416.123,-24.31 414.299,-23.569 412.766,-22.086C411.931,-21.251 411.317,-20.391 410.925,-19.505Z" style="fill:rgb(125,124,124);fill-rule:nonzero;"/>
    </g>
</svg>
